<?xml version='1.0' encoding='ASCII' standalone='yes'?>
<svg xmlns:xlink="http://www.w3.org/1999/xlink" xmlns="http://www.w3.org/2000/svg" version="1.1" width="215.0px" viewBox="0 0 215.0px 215.0px" height="215.0px">
  <g>
    <path d="M0 107.5 L215 107.5" stroke="#3E00FF" stroke-width="215px"/>
    <g transform="translate(39.21999717454263, 0) scale(1) translate(0, 0) scale(0.1518683336865155) ">
      <g fill="none" fill-rule="evenodd">
        <path d="M872.2 1310.4v-.4c0-73.2-43.7-139.4-111-168.2L644.6 1092c-61.6-26.4-127.9-39.9-195-39.9-67 0-133.3 13.6-195 39.9L138 1141.8c-67.3 28.8-111 95-111 168.2v105.6h845.2v-105.2z" fill="#CCC"/>
        <path fill="#FFF" d="M314.9 1073.9h263.6v337.5H314.9z"/>
        <path d="M208.1 1254.1l-8.9 142.4m491.9-142.4l5.4 142.4" stroke="#333" stroke-width="12.523" stroke-linecap="round"/>
        <path d="M449.6 1079c31.5 0 63.2 3.2 94.1 9.5 30.9 6.3 61.3 15.8 90.3 28.2l116.6 49.9c57.5 24.6 94.6 80.9 94.6 143.4v78.6H54V1310c0-62.5 37.1-118.8 94.6-143.4l116.6-49.9c29-12.4 59.4-21.9 90.3-28.2 30.9-6.3 62.6-9.5 94.1-9.5zm0-27c-67 0-133.3 13.6-195 39.9L138 1141.8c-67.3 28.8-111 95-111 168.2v105.6h845.2V1310c0-73.2-43.7-139.4-111-168.2L644.6 1092c-61.7-26.4-128-40-195-40z" fill="#333" fill-rule="nonzero"/>
        <path d="M314.9 1082.7v326m263.6-326v326" stroke="#333" stroke-width="12.523" stroke-linecap="round"/>
        <path d="M548.2 1083.7c0 1.1.1 19.6.1 20.7 0 53.7-45.5 97.3-101.6 97.3-56.1 0-101.6-43.6-101.6-97.3v-20.7" stroke="#333" stroke-width="11.045" opacity=".15"/>
      </g>
    </g>
    <g transform="translate(39.21999717454263, 0) scale(1) translate(0, 0) scale(0.1518683336865155) ">
      <g fill="none" fill-rule="evenodd">
        <path d="M163 774.9c-25.4-6.1-44.4-29-44.4-56.2v-37.5c0-27.3 19-50.2 44.4-56.2v149.9z" fill="#DBDBDB"/>
        <path d="M149.5 645.9v108c-10.6-8.1-17.5-20.9-17.5-35.3v-37.5c.1-14.3 6.9-27.1 17.5-35.2zm26.9-36c-39.4 0-71.3 31.9-71.3 71.3v37.5c0 39.4 31.9 71.3 71.3 71.3V609.9z" fill="#333" fill-rule="nonzero"/>
        <path d="M736.2 624.2c25.4 6.1 44.4 29 44.4 56.2v37.5c0 27.3-19 50.2-44.4 56.2V624.2z" fill="#F8D5C2"/>
        <path d="M749.7 645.2c10.6 8.1 17.5 20.9 17.5 35.3V718c0 14.4-6.9 27.2-17.5 35.3V645.2zm-26.9-36v180c39.4 0 71.3-31.9 71.3-71.3v-37.5c-.1-39.3-32-71.2-71.3-71.2z" fill="#333" fill-rule="nonzero"/>
        <path d="M163 774.2c-25.4-6.1-44.4-29-44.4-56.2v-37.5c0-27.3 19-50.2 44.4-56.2v149.9z" fill="#F8D5C2"/>
        <path d="M149.5 645.2v108c-10.6-8.1-17.5-20.9-17.5-35.3v-37.5c.1-14.3 6.9-27.1 17.5-35.2zm26.9-36c-39.4 0-71.3 31.9-71.3 71.3V718c0 39.4 31.9 71.3 71.3 71.3V609.2z" fill="#333" fill-rule="nonzero"/>
        <path d="M148 570.4h603.7v241.5H148z"/>
      </g>
    </g>
    <g transform="translate(39.21999717454263, 0) scale(1) translate(0, 0) scale(0.1518683336865155) ">
      <g fill="none" fill-rule="evenodd">
        <g fill-rule="nonzero">
          <path d="M446.6 1170.7c-33 0-62.1-21.1-72.2-52.6l-15.3-47.5L396.9 944l100.9.3 36.4 126.1-15.6 47.9c-10.2 31.2-39.1 52.3-72 52.3v.1z" fill="#F8D5C2"/>
          <path d="M407 957.6l80.7.2 32.5 112.4-14.3 43.9c-8.4 25.7-32.1 43-59.1 43h-.1c-27.2 0-51-17.4-59.3-43.2l-14-43.5L407 957.6zm-20.1-27.1L345 1070.7l16.6 51.5c11.9 36.9 46.3 62 85.1 62h.2c38.6-.1 72.8-24.9 84.8-61.7l16.9-51.8L508 930.8l-121.1-.3z" fill="#333"/>
        </g>
        <g fill-rule="nonzero">
          <path d="M449.3 1008.2c-52.3 0-103.5-14.6-147.9-42.3-44.4-27.7-80.1-67.1-103.2-114.1l-7.9-16.1c-18.8-38.2-28.7-80.9-28.7-123.4V447.8c0-28.9 10.4-56.8 29.3-78.7 18.9-21.8 45.1-36.2 73.6-40.3 61.1-8.9 123.4-13.4 185.1-13.4 61.7 0 124 4.5 185.1 13.4 28.6 4.1 54.7 18.5 73.6 40.3 18.9 21.8 29.3 49.8 29.3 78.7v263.4c0 43.2-10.2 86.5-29.5 125.2l-8.6 17.2c-23.3 46.5-58.9 85.5-103.1 112.8-44.2 27.4-95.1 41.8-147.1 41.8z" fill="#F8D5C2"/>
          <path d="M449.6 329c61.1 0 122.7 4.4 183.2 13.2 25.4 3.7 48.6 16.4 65.4 35.8 16.8 19.4 26 44.2 26 69.8v263.4c0 41.1-9.7 82.3-28.1 119.1l-8.6 17.2c-22.1 44.3-56.1 81.4-98.2 107.4s-90.5 39.8-139.9 39.8h-.1c-49.8 0-98.5-13.9-140.8-40.2-42.3-26.3-76.2-63.9-98.2-108.6l-7.9-16.1c-17.9-36.3-27.3-77-27.3-117.5V447.8c0-25.6 9.2-50.4 26-69.8s40-32.1 65.4-35.8c60.4-8.8 122-13.2 183.1-13.2zm0-27c-62.5 0-125 4.5-187.1 13.5C196.8 325 148 381.4 148 447.8v264.5c0 44.9 10.3 89.1 30.1 129.4l7.9 16.1c49.3 100.4 151.4 163.9 263.2 163.9h.1c111.1 0 212.6-62.8 262.2-162.1l8.6-17.2c20.4-40.7 31-85.6 31-131.2V447.8c0-66.4-48.8-122.8-114.5-132.3-62-9-124.5-13.5-187-13.5z" fill="#333"/>
        </g>
        <path d="M148 280.9h602.6v241.5H148z"/>
      </g>
    </g>
    <g transform="translate(39.21999717454263, 0) scale(1) translate(0, 0) scale(0.1518683336865155) ">
      <g fill="none" fill-rule="evenodd">
        <path d="M27 121.2h845.2v724.5H27z"/>
        <g fill-rule="nonzero">
          <path d="M751.4 256.3c-40.6-43.1-90.4-14.7-141.5-16.6-143.8-5.5-299.2 64.1-299.2 64.1l8 6.5c105.1-10.5 211.1-8.3 315.8 6.9 65.5 9.5 114 65.6 114 131.8v211s124.2-275 2.9-403.7z" fill="#000"/>
          <path d="M797.9 440.5L747 429.7c.9 6.3 1.5 12.7 1.5 19.3v4.6l44.6 9.5 4.8-22.6zm-11.3 57.6l-38.1-8.6v23.6l32.9 7.5z" fill="#333"/>
          <path d="M803 381.9c-.8-8.3-1.9-16.5-3.4-24.6-.5-2.7-1-5.4-1.6-8-1.2-5.3-2.5-10.6-4-15.8-1.5-5.2-3.2-10.3-5-15.4-1.9-5-3.9-10-6.2-14.9-2.3-4.9-4.7-9.6-7.4-14.3-6.7-11.6-14.6-22.6-24.1-32.6-2-2.2-4.1-4.1-6.2-5.9-.3-.3-.6-.5-.9-.8-2-1.7-4-3.2-6-4.6-.4-.3-.7-.5-1.1-.8-2-1.3-4.1-2.6-6.2-3.6-.3-.2-.6-.3-.9-.5-2.2-1.1-4.4-2.1-6.6-2.9-2.2-.8-4.5-1.5-6.8-2.1l-.9-.3c-2.2-.5-4.3-1-6.5-1.3-.4-.1-.8-.1-1.2-.2-2.2-.3-4.4-.6-6.6-.7-.3 0-.7 0-1-.1-2.3-.1-4.6-.2-7-.2h-.1c-3 0-6.1.1-9.2.3h-.6c-2.9.2-5.9.5-8.8.8-.3 0-.7.1-1 .1-2.9.3-5.7.7-8.6 1.1-.4.1-.9.1-1.3.2-2.9.4-5.8.8-8.8 1.2-3 .4-6.1.9-9.2 1.3-.4 0-.7.1-1.1.1-3 .4-5.9.8-8.9 1.1-.3 0-.7.1-1 .1-3 .3-6.1.6-9.1.8-.3 0-.5 0-.8.1-3.2.2-6.3.3-9.5.3h-.5c-1.7 0-3.4 0-5-.1-5-.2-10.1-.3-15.2-.3-2.4 0-4.8 0-7.1.1-2 0-4 0-5.9.1l-7.5.3c-1.9.1-3.8.1-5.8.2-2.6.1-5.2.3-7.8.5-1.8.1-3.7.2-5.5.4-2.7.2-5.5.5-8.2.7-1.7.2-3.3.3-5 .5-3.1.3-6.2.7-9.3 1-1.3.2-2.6.3-3.9.4-4.4.5-8.7 1.1-13 1.7-.9.1-1.7.3-2.6.4-3.4.5-6.9 1-10.3 1.6-1.6.3-3.1.5-4.6.8-2.7.5-5.4.9-8.1 1.4-1.7.3-3.5.7-5.2 1-2.4.5-4.9.9-7.3 1.4-1.8.4-3.6.7-5.3 1.1-2.3.5-4.7 1-7 1.5-1.8.4-3.5.8-5.3 1.2-2.3.5-4.5 1-6.7 1.5-1.8.4-3.6.9-5.3 1.3-2.1.5-4.3 1-6.4 1.6-1.8.4-3.5.9-5.3 1.3-2.1.5-4.1 1.1-6.2 1.6-1.7.5-3.5.9-5.2 1.4-2 .5-4 1.1-5.9 1.6-1.7.5-3.4.9-5 1.4-1.9.5-3.8 1.1-5.7 1.6-1.6.5-3.3 1-4.9 1.4-1.8.5-3.6 1.1-5.4 1.6-1.6.5-3.2 1-4.7 1.4-1.8.5-3.5 1.1-5.2 1.6-1.5.5-3 .9-4.4 1.4-1.7.5-3.4 1.1-5 1.6-1.4.5-2.8.9-4.2 1.4-1.6.5-3.2 1.1-4.8 1.6-1.3.4-2.6.9-3.9 1.3-1.5.5-3.1 1.1-4.5 1.6-1.2.4-2.5.9-3.6 1.3-1.4.5-2.9 1-4.2 1.5-1.1.4-2.3.8-3.4 1.2-1.4.5-2.7 1-4 1.5-1 .4-2.1.8-3.1 1.1-1.3.5-2.4.9-3.6 1.4-.9.4-1.9.7-2.8 1.1-1.1.4-2.2.9-3.3 1.3-.8.3-1.7.7-2.5 1l-3 1.2c-.7.3-1.5.6-2.2.9-.9.4-1.7.7-2.6 1-.6.3-1.3.5-1.8.8-.8.3-1.6.7-2.3 1-.4.2-.9.4-1.3.5-.7.3-1.3.6-1.9.8-.3.1-.7.3-1 .4-.5.2-.8.3-1.2.5-.3.1-.7.3-.9.4-.3.1-.4.2-.6.3-.7.3-1.1.5-1.1.5l8 6.5c21-2.1 42-3.6 63-4.6 53-17.7 133.7-39.4 211.7-39.4 5.2 0 10.4.1 15.4.3 2.1.1 4.2.1 6.3.1 15.6 0 30.3-2.1 44.5-4.1 12.1-1.7 23.5-3.4 33.8-3.4 16.9 0 28 4.5 38.4 15.6 54.7 58.1 50.6 154.8 37.4 225.7-5.6 30.2-13.3 58.3-20.7 81.9V392.6c0-32.7-26.5-59.1-59.1-59.1h-19.8l4.6 26.7h13c18.2 0 32.9 14.7 32.9 32.9v62.8l2.1 178.1c.2 14.4 11.9 26 26.3 26 0 0 1.9-4.3 5.1-12.1.8-1.9 1.7-4.1 2.6-6.5 5.1-13 12.2-32.2 19.4-55.4 2-6.3 3.9-13 5.8-19.9.6-2.3 1.3-4.6 1.9-7 1.3-4.7 2.5-9.5 3.7-14.4 3-12.3 5.9-25.1 8.4-38.4 1.5-8 2.8-16 4-24.2.8-5.5 1.5-11 2.1-16.5.9-8.3 1.7-16.7 2.2-25.1.5-8.4.8-16.8.8-25.2-.1-11.1-.6-22.3-1.7-33.4z" fill="#333"/>
        </g>
        <path d="M751.2 133.3v-4.1c0-33.5-49.7-40.1-49.7-40.1s47.5 61.8-88.2 99.8c-35.6 10-73.8 7.3-107-9l-.6-.3c-95.2-47.1-205-100.7-369.5 76.7-123.4 133-13.7 405.9 37.4 405.9 0 0-.5-195.5.5-213.1.4-7.7 1.7-15.3 3.3-22 3.2-13.7 19.2-19.8 30.6-11.6 58.1 41.6 125.8 65.7 203.6 65.7 171.7 0 298.8-108.6 331.4-265.9v-.1c2.2-10.8 4-21.7 5.4-32.9 1.8-16 2.8-32.3 2.8-49z" fill="#000" fill-rule="nonzero"/>
        <path d="M719.9 151.6c-24.3 45.2-53.9 87.4-89.3 123.2-8.5 9.3-18.4 17.1-27.6 25.6-4.8 4-9.9 7.6-14.8 11.5l-7.4 5.7-7.8 5.1c-20.5 14.1-42.6 25.3-65.5 34.1-45.8 17.7-95.2 24.3-143.9 21-2.1-.1-4.2-.4-6.3-.6 17.9-5.6 35.5-12.4 52.6-20.6 15.6-7.3 30.7-16 45-25.7 14.4-9.6 28-20.7 40.5-32.9 25.3-24.1 45.3-53.4 59.9-84.5l-34.1-16.7c-14.3 26.3-32.5 50.2-55.1 69.4-11.1 9.7-23.2 18.5-36 26-12.7 7.6-26.1 14.4-40 20-27.7 11.4-57.2 19.1-87.2 23.5-15 2.3-30.2 3.8-45.3 4.5-7.6.3-15.1.6-22.7.5l-11.2-.2c-3.5-.1-7.7-.3-10.3-.6l-3.9.1c-11.1.3-21.5 7-26.1 17.9-6.3 14.9.6 32.1 15.6 38.5 4.2 1.8 7.2 2.9 10.7 4.2 3.4 1.2 6.7 2.4 10 3.4 6.7 2.2 13.3 4.2 20 5.9 13.4 3.6 26.8 6.6 40.4 9 27.1 4.8 54.6 7.3 82.1 7.1 55-.2 110.3-11.6 159.9-35 24.8-11.5 48.3-25.7 69.6-42.6l8.1-6.2 7.6-6.7c5-4.5 10.2-8.9 15.1-13.5 9.3-9.7 19.2-18.9 27.6-29.3 34.9-40.6 62.3-86.5 83.8-134.3l-14-6.8zM97.94 462.406l60.168-15.358 5.713 22.382-60.17 15.357zm10.252 56.278l46.08-11.519 5.602 22.41-46.08 11.519z" fill="#333" fill-rule="nonzero"/>
        <path d="M223.8 425.9c-1.5-1.4-2.8-2.6-4.1-3.9l-3.9-3.9c-2.6-2.6-5.1-5.3-7.7-7.9-5-5.3-9.9-10.8-14.7-16.4-4.8-5.6-9.3-11.3-13.7-17.2-4.4-5.9-8.5-12-12.3-18.3l8.3-6.1c4.7 5.1 9.6 10 14.8 14.7 5.2 4.7 10.5 9.2 16 13.5 5.5 4.3 11.1 8.6 16.7 12.6 2.8 2 5.7 4 8.6 6 1.4 1 2.9 1.9 4.3 2.9 1.4.9 2.9 1.9 4.2 2.7l-16.5 21.3z" fill="#333" fill-rule="nonzero"/>
        <path d="M723.9 154.6c-.4 8.2-1.1 16.4-2.1 24.4-1.2 9.8-2.8 19.7-4.8 29.5l-.3 1.3c-30.7 148.5-150.5 244.5-305 244.5-68.6 0-131.8-20.4-187.9-60.7-8-5.7-17.3-8.7-27-8.7-21.8 0-40.5 14.8-45.4 36.1-2.1 9.2-3.5 18.2-4 26.6-.7 11.4-.7 87.2-.7 146-12-24.1-24.3-57.1-32.2-96.2-8.9-44-22.5-153.7 41.5-222.7 71.3-76.8 136.8-114.2 200.5-114.2 49.9 0 94.4 22 137.4 43.3l.7.4c23.4 11.5 49.9 17.5 76.6 17.5 16.6 0 33.3-2.3 49.5-6.8 51.4-14.5 86-34.7 103.2-60.3zm-22.3-65.5s47.5 61.8-88.2 99.8c-13.8 3.9-28.1 5.8-42.2 5.8-22.3 0-44.5-4.9-64.8-14.8l-.6-.3c-45.1-22.3-93.4-46.1-149.3-46.1-62.1 0-133.6 29.4-220.2 122.8-123.4 133-13.7 405.9 37.4 405.9 0 0-.5-195.5.5-213.1.4-7.7 1.7-15.3 3.3-22 2.2-9.5 10.5-15.3 19.3-15.3 3.9 0 7.9 1.2 11.4 3.7 58.1 41.6 125.8 65.7 203.6 65.7 171.7 0 298.8-108.6 331.4-265.9v-.1c2.2-10.8 4-21.7 5.4-32.9 1.9-15.9 2.9-32.2 2.9-48.9v-4.1c-.1-33.5-49.9-40.2-49.9-40.2z" fill="#333" fill-rule="nonzero"/>
        <path d="M101.4 208.6c12.3-8.9 30-11.4 45.3-7.4 7.7 1.8 14.9 5 21.5 8.9 3.3 2 6.5 4.1 9.5 6.5l1.1.9.5.4c-.4-.4-.9-.6-1.4-1-2-1.2-4.6-1.6-6.8-1.1-2.3.4-4.4 1.7-5.9 3.6-1.6 1.7-2.2 5.6-1.8 3.5 2.3-11.8 3.5-24 2.4-35-1.2-11.1-4.7-20.3-14.1-27.5l4.4-10.9c7.7 1.5 15.3 6 20.9 12.2 5.6 6.3 9.2 13.9 11.3 21.4 4.3 15.2 3.7 30.2 1.3 44.6.2-.4-.8 5.2-3.4 8.1-2.5 3.3-6.2 5.4-10.1 6.2-3.9.8-8.2.1-11.6-1.9-.9-.5-1.6-1.1-2.4-1.7l-.5-.4-.8-.7c-2.2-1.7-4.5-3.5-6.8-5.1-4.7-3.3-9.6-5.9-14.6-8.1-10.1-4.3-20.8-5.9-33-4.2l-5-11.3z" fill="#333" fill-rule="nonzero"/>
      </g>
    </g>
    <g transform="translate(39.21999717454263, 0) scale(1) translate(0, 0) scale(0.1518683336865155) ">
      <path d="M498 908.8c-2.6-3.4-6.3-5.8-10.2-7.8-3.9-2-8-3.5-12.1-4.6-8.4-2.3-17.1-3.1-25.7-2.8-8.6.3-17.2 1.6-25.5 4.4-4.1 1.4-8.1 3.2-11.8 5.4-1.9 1.1-3.7 2.3-5.3 3.7-1.7 1.3-3.2 2.9-4.3 4.7 5 1 9.1 1.7 13.2 2.3 4.1.6 8 1.1 11.8 1.5 7.7.7 15.1.9 22.6.6 5-.2 9.9-.5 14.9-1.1 2.5-.3 5.1-.6 7.7-1 3.8-.6 7.7-1.3 11.7-2.2 4-.8 8.1-1.8 13-3.1z" fill="#333" opacity=".2"/>
      <path d="M326.5 818.9c12.6 17.4 67.9 38.2 123.1 38.2 55 0 113.2-20.8 123.1-38.2" fill="none" stroke="#333" stroke-width="16.163" stroke-linecap="round" stroke-miterlimit="10"/>
      <path fill="none" d="M147.7 570.5h603.7V812H147.7z"/>
    </g>
    <g transform="translate(39.21999717454263, 0) scale(1) translate(0, 0) scale(0.1518683336865155) ">
      <path d="M455.4 763.1V591.6c-4.9 2.6-8.9 8.4-10.7 16l-.6 1.2c-6.5 12.6-11.6 25.9-15.6 39.5-2.3 7.7-5.1 15-8.4 21.8-25.3 51.1-17.3 67.8 32.3 92.6.6.2 2.5.3 3 .4z" fill="#333" opacity=".2"/>
      <path d="M416.1 725.9c8.9 18.1 39.3 29.8 39.3 29.8s30.4-11.7 39.3-29.8" fill="none" stroke="#333" stroke-width="16.163" stroke-miterlimit="10"/>
      <path fill="none" d="M147.7 570.5h603.7V812H147.7z"/>
    </g>
    <g transform="translate(39.21999717454263, 0) scale(1) translate(0, 0) scale(0.1518683336865155) ">
      <style>.st1{fill:#333}</style>
      <path fill="none" d="M147.7 570.5h603.7V812H147.7z"/>
      <path class="st1" d="M393.7 602.5c-8-7.8-18.5-13.8-29.7-17.9-11.3-4.1-23.4-6.3-35.7-6.8-12.3-.4-24.6.8-36.5 4.1-11.8 3.3-23.1 8.5-32.4 16.2l-6.6-7.4c10.2-9.5 22.5-16.2 35.4-20.6 13-4.4 26.6-6.6 40.2-7 13.7-.3 27.5 1.3 40.9 5.3 13.3 4 26.4 10.2 37.6 19.8l-13.2 14.3zm238.5-1.4c-9.1-7.8-20.2-13.2-31.9-16.7-11.7-3.4-24.1-4.9-36.3-4.7-12.2.3-24.4 2.3-35.7 6.2-11.3 3.9-21.9 9.7-30 17.4l-13-14.4c11.3-9.6 24.4-15.7 37.8-19.5 13.4-3.8 27.3-5.3 41-4.9 13.7.5 27.3 2.8 40.3 7.4 12.9 4.6 25.3 11.3 35.4 21.1l-7.6 8.1z"/>
      <ellipse transform="matrix(.00679 -1 1 .00679 -95.001 1213.604)" class="st1" cx="563.4" cy="654.6" rx="36.6" ry="29.7"/>
      <ellipse transform="matrix(.00679 -1 1 .00679 -327.492 976.331)" class="st1" cx="327.7" cy="653" rx="36.6" ry="29.7"/>
    </g>
  </g>
</svg>
